# xmcd
#
# Track frame offsets: 
#        150
#        14218
#        29727
#        47288
#
# Disc length: 817 seconds
#
# Revision: 1
# Processed by: cddbd v1.5.2PL0 Copyright (c) Steve Scherf et al.
# Submitted via: ExactAudioCopy v0.95b4
#
DISCID=2f032f04
DTITLE=Jan Hayston - Ich klink mich aus... [CDM]
DYEAR=2008
DGENRE=Country
TTITLE0=Ich klink mich aus...
TTITLE1=Ab ins Wochenende
TTITLE2=Ich komm nicht aus dem Bett
TTITLE3=Ich klink mich aus... (DJLK-Mix)
EXTD=
EXTT0=
EXTT1=
EXTT2=
EXTT3=
PLAYORDER=
